<?xml version="1.0" standalone="no"?>
<!DOCTYPE svg PUBLIC "-//W3C//DTD SVG 20010904//EN"
 "http://www.w3.org/TR/2001/REC-SVG-20010904/DTD/svg10.dtd">
<svg version="1.0" xmlns="http://www.w3.org/2000/svg"
 width="1170.000000pt" height="779.000000pt" viewBox="0 0 1170.000000 779.000000"
 preserveAspectRatio="xMidYMid meet">

<g transform="translate(0.000000,779.000000) scale(0.100000,-0.100000)"
fill="#000000" stroke="none">
<path d="M6560 6500 c-36 -10 -89 -26 -117 -34 -80 -24 -151 -45 -223 -65 -36
-11 -141 -41 -235 -69 -93 -27 -179 -52 -190 -55 -11 -3 -83 -24 -160 -47 -77
-23 -153 -46 -170 -50 -16 -4 -70 -20 -120 -35 -49 -15 -103 -31 -120 -35
-122 -33 -179 -54 -217 -79 -58 -39 -73 -57 -103 -124 l-25 -58 -1 -577 c0
-317 -4 -656 -8 -752 -10 -212 -20 -241 -122 -341 -93 -91 -247 -165 -534
-256 -44 -14 -109 -39 -145 -55 -62 -28 -81 -38 -149 -73 -30 -16 -117 -89
-159 -135 -13 -14 -40 -58 -59 -97 -30 -63 -35 -84 -37 -150 -3 -167 104 -322
285 -414 42 -21 107 -45 143 -53 76 -18 257 -21 326 -5 109 24 271 106 360
181 49 42 154 193 180 258 7 19 16 40 20 45 20 29 71 237 86 350 3 28 9 433
12 900 7 829 7 851 27 877 28 38 80 57 310 114 33 9 69 19 80 24 11 6 38 14
60 19 34 7 274 75 810 227 65 19 140 34 166 34 63 0 128 -36 156 -86 22 -38
23 -46 24 -404 1 -304 12 -619 17 -517 2 20 7 27 22 27 11 0 20 4 20 9 0 5 -8
8 -17 7 -13 -1 -17 5 -15 24 1 14 3 43 5 65 2 34 6 40 25 41 15 1 22 -4 22
-17 0 -24 6 -24 53 1 l37 20 1 -27 c2 -28 2 -28 6 -3 3 14 10 28 17 32 6 4 -9
8 -34 8 -39 1 -43 2 -28 14 13 10 15 15 6 24 -19 19 16 50 36 33 10 -8 16 -9
21 -1 3 5 -1 10 -9 10 -9 0 -16 7 -16 15 0 18 19 20 22 3 2 -7 5 221 8 507 6
627 4 639 -93 710 -80 59 -143 67 -257 35z m197 -1342 c-3 -7 -5 -2 -5 12 0
14 2 19 5 13 2 -7 2 -19 0 -25z"/>
<path d="M6970 5126 c6 -8 18 -12 27 -9 12 5 12 7 1 14 -7 5 -19 9 -27 9 -11
0 -11 -3 -1 -14z"/>
<path d="M6760 5100 c0 -5 5 -10 10 -10 6 0 10 5 10 10 0 6 -4 10 -10 10 -5 0
-10 -4 -10 -10z"/>
<path d="M6753 5057 c5 -18 56 -40 74 -33 22 9 7 22 -40 34 -29 8 -37 8 -34
-1z"/>
<path d="M6855 4990 c-3 -6 1 -7 9 -4 18 7 21 14 7 14 -6 0 -13 -4 -16 -10z"/>
<path d="M6707 4850 c3 -11 7 -20 9 -20 2 0 4 9 4 20 0 11 -4 20 -9 20 -5 0
-7 -9 -4 -20z"/>
<path d="M6700 4760 c0 -5 7 -10 15 -10 8 0 15 5 15 10 0 6 -7 10 -15 10 -8 0
-15 -4 -15 -10z"/>
<path d="M6501 4645 c-26 -26 -27 -42 -1 -22 22 18 44 47 34 46 -5 0 -20 -11
-33 -24z"/>
<path d="M6560 4639 c0 -5 5 -7 10 -4 6 3 10 8 10 11 0 2 -4 4 -10 4 -5 0 -10
-5 -10 -11z"/>
<path d="M6425 4600 c-3 -5 -17 -10 -31 -10 -14 0 -22 -4 -19 -10 3 -5 17 -10
30 -10 13 0 25 -5 27 -10 4 -14 65 7 72 25 4 11 0 12 -20 5 -14 -6 -32 -10
-41 -10 -13 0 -13 3 -3 15 8 9 9 15 2 15 -6 0 -14 -4 -17 -10z"/>
<path d="M6557 4570 c3 -11 9 -17 15 -14 5 3 4 12 -3 20 -16 19 -18 18 -12 -6z"/>
<path d="M6330 4560 c0 -5 -11 -10 -25 -10 -14 0 -25 -4 -25 -10 0 -5 5 -10
11 -10 17 0 -13 -26 -38 -32 -12 -3 -27 0 -33 7 -11 13 -56 9 -66 -6 -3 -5
-13 -9 -22 -9 -58 0 -333 -114 -412 -170 -57 -40 -152 -147 -177 -198 -46 -94
-45 -215 2 -317 26 -57 103 -146 137 -157 16 -6 25 -15 21 -21 -4 -6 0 -8 10
-4 10 4 16 2 14 -4 -1 -6 6 -16 16 -22 15 -10 21 -9 32 6 9 13 20 16 38 12 14
-4 28 -2 31 4 5 7 -2 11 -15 11 -21 0 -21 1 -6 18 13 14 16 33 13 78 -2 32 -1
42 1 22 5 -44 17 -48 45 -12 11 14 26 23 33 20 7 -2 15 4 18 15 5 17 9 19 26
9 14 -7 21 -7 21 0 0 5 -7 10 -15 10 -22 0 -18 16 10 38 21 17 25 28 25 71 0
28 4 51 9 51 17 0 71 61 71 80 0 19 54 80 71 80 5 0 9 11 9 24 0 14 10 33 24
44 18 14 26 30 28 63 2 37 8 46 31 57 16 8 37 27 47 44 10 17 29 35 42 42 13
7 26 24 29 41 4 17 7 26 8 21 0 -5 8 -3 16 4 8 7 23 10 32 6 16 -5 17 -4 1 6
-15 11 -15 14 0 36 15 23 15 25 -3 38 -22 16 -45 18 -45 4 0 -5 7 -7 15 -4 8
4 15 2 15 -4 0 -18 -25 -20 -45 -5 -14 11 -16 17 -7 20 17 7 15 23 -3 23 -8 0
-15 -4 -15 -10z m-10 -120 c0 -5 -2 -10 -4 -10 -3 0 -8 5 -11 10 -3 6 -1 10 4
10 6 0 11 -4 11 -10z m-140 -210 c0 -22 -4 -40 -10 -40 -5 0 -10 18 -10 40 0
22 5 40 10 40 6 0 10 -18 10 -40z m-498 -562 c-9 -9 -12 -7 -12 12 0 19 3 21
12 12 9 -9 9 -15 0 -24z m83 -37 c3 -5 2 -12 -3 -15 -5 -3 -9 1 -9 9 0 17 3
19 12 6z"/>
<path d="M6510 4540 c-13 -8 -12 -10 3 -10 9 0 17 5 17 10 0 12 -1 12 -20 0z"/>
<path d="M6233 4523 c9 -2 23 -2 30 0 6 3 -1 5 -18 5 -16 0 -22 -2 -12 -5z"/>
<path d="M5867 3589 c8 -8 16 -8 30 0 16 9 14 10 -11 11 -22 0 -27 -3 -19 -11z"/>
<path d="M5797 3584 c-11 -11 3 -24 24 -24 12 0 19 5 17 13 -5 14 -31 21 -41
11z"/>
<path d="M5855 3550 c3 -5 13 -10 21 -10 8 0 14 5 14 10 0 6 -9 10 -21 10 -11
0 -17 -4 -14 -10z"/>
<path d="M8945 2340 c-3 -5 -1 -10 4 -10 6 0 11 5 11 10 0 6 -2 10 -4 10 -3 0
-8 -4 -11 -10z"/>
<path d="M8575 2330 c-3 -5 -1 -10 4 -10 6 0 11 5 11 10 0 6 -2 10 -4 10 -3 0
-8 -4 -11 -10z"/>
<path d="M4220 2306 c0 -13 -6 -27 -12 -29 -8 -3 -6 -6 5 -6 21 -1 23 -27 2
-35 -9 -3 -15 0 -15 9 0 22 -15 18 -28 -7 -14 -29 -26 -85 -62 -288 -16 -91
-32 -180 -36 -198 l-7 -33 64 3 64 3 12 60 c7 33 24 134 38 225 14 90 29 168
34 173 11 11 34 -10 39 -33 1 -8 6 -24 11 -35 4 -11 28 -72 53 -135 25 -63 50
-115 56 -115 6 0 57 62 115 138 77 101 104 143 101 160 -4 17 -3 18 3 4 8 -16
10 -16 27 4 34 41 38 7 12 -122 -43 -220 -56 -294 -56 -312 0 -16 8 -18 62
-15 l62 3 17 95 c45 262 66 455 47 444 -4 -3 -8 -16 -8 -29 0 -13 -4 -27 -10
-30 -12 -8 -13 1 -1 41 8 28 7 31 -10 27 -15 -4 -17 -8 -8 -19 9 -12 2 -14
-45 -14 -32 0 -66 -4 -76 -10 -26 -14 -54 -2 -39 16 6 8 7 14 2 14 -11 0 -26
-16 -103 -113 -29 -37 -59 -66 -64 -64 -6 2 -15 18 -20 35 -5 18 -13 32 -17
32 -5 0 -9 7 -9 15 0 8 -12 26 -27 40 -22 20 -24 25 -10 25 9 0 17 5 17 10 0
6 -5 10 -11 10 -6 0 -9 6 -6 13 3 7 -2 22 -9 32 -14 19 -15 19 -13 0 5 -46 -1
-64 -17 -58 -9 3 -14 13 -11 24 3 11 1 17 -3 14 -5 -3 -10 0 -13 7 -2 7 -2 1
0 -14 4 -27 3 -28 -35 -28 -37 0 -41 3 -47 30 -4 16 -4 34 -1 39 4 5 2 12 -4
16 -6 4 -10 -4 -10 -19z m-14 -113 c-10 -10 -19 5 -10 18 6 11 8 11 12 0 2 -7
1 -15 -2 -18z m414 11 c0 -8 -4 -12 -10 -9 -5 3 -10 10 -10 16 0 5 5 9 10 9 6
0 10 -7 10 -16z m-363 -36 c-3 -8 -6 -5 -6 6 -1 11 2 17 5 13 3 -3 4 -12 1
-19z"/>
<path d="M4851 2314 c0 -11 3 -14 6 -6 3 7 2 16 -1 19 -3 4 -6 -2 -5 -13z"/>
<path d="M6941 2314 c0 -11 3 -14 6 -6 3 7 2 16 -1 19 -3 4 -6 -2 -5 -13z"/>
<path d="M5065 2309 c-4 -6 -5 -12 -2 -15 2 -3 7 2 10 11 7 17 1 20 -8 4z"/>
<path d="M6241 2304 c0 -11 3 -14 6 -6 3 7 2 16 -1 19 -3 4 -6 -2 -5 -13z"/>
<path d="M9080 2311 c0 -5 5 -13 10 -16 6 -3 10 -2 10 4 0 5 -4 13 -10 16 -5
3 -10 2 -10 -4z"/>
<path d="M5619 2294 c13 -28 1 -43 -32 -40 -21 3 -27 -1 -27 -16 0 -11 -4 -16
-11 -12 -7 4 -9 -2 -7 -17 2 -13 9 -23 16 -21 6 1 12 -2 12 -8 0 -5 -5 -10
-10 -10 -6 0 -9 -19 -9 -42 3 -61 -9 -105 -43 -159 -58 -94 -164 -147 -274
-136 -76 8 -117 36 -150 103 -23 48 -26 63 -21 115 4 33 14 73 23 90 8 17 13
33 10 36 -9 9 14 44 25 38 5 -4 9 -3 10 2 0 4 2 17 3 29 2 16 -2 20 -15 17
-10 -3 -20 -11 -23 -19 -7 -18 -66 -19 -66 -1 0 7 5 18 12 25 9 9 9 12 0 12
-16 0 -33 -35 -26 -57 5 -15 4 -15 -4 -3 -9 11 -15 5 -31 -33 -49 -114 -55
-170 -30 -258 28 -96 89 -167 174 -204 55 -23 205 -23 266 1 126 50 202 125
257 254 23 55 31 137 21 212 -4 29 -19 39 -19 13 0 -11 -9 -15 -29 -13 -22 2
-27 6 -23 21 4 17 6 18 14 3 13 -23 27 -11 21 17 -4 18 -3 19 6 7 7 -9 11 -10
11 -3 0 6 -5 15 -10 18 -6 4 -8 10 -5 14 2 5 -2 17 -11 27 -15 18 -15 18 -5
-2z m-29 -64 c0 -5 -4 -10 -10 -10 -5 0 -10 5 -10 10 0 6 5 10 10 10 6 0 10
-4 10 -10z"/>
<path d="M7670 2301 c0 -5 5 -13 10 -16 6 -3 10 -2 10 4 0 5 -4 13 -10 16 -5
3 -10 2 -10 -4z"/>
<path d="M7918 2304 c8 -4 22 -20 32 -36 10 -18 20 -25 24 -19 4 6 2 11 -4 11
-6 0 -9 4 -6 8 8 13 -7 29 -34 36 -14 3 -19 3 -12 0z"/>
<path d="M8670 2300 c0 -5 5 -10 11 -10 5 0 7 5 4 10 -3 6 -8 10 -11 10 -2 0
-4 -4 -4 -10z"/>
<path d="M2699 2275 c-1 -16 -3 -41 -4 -55 -1 -14 -4 -32 -7 -40 -8 -20 -26
-98 -32 -135 -8 -51 -36 -198 -46 -245 -17 -81 -17 -80 49 -80 33 0 62 3 64 8
3 4 8 30 12 57 3 28 12 79 18 115 l12 65 67 3 68 3 17 -43 c10 -24 31 -79 48
-123 l30 -80 63 -3 c35 -2 62 1 62 7 0 5 -22 62 -50 126 -27 64 -50 121 -50
125 0 5 16 17 35 26 50 23 113 98 120 143 4 20 11 47 16 61 8 17 7 26 0 28 -6
2 -11 16 -12 30 0 24 -1 25 -8 7 -5 -11 -6 -26 -4 -32 3 -7 1 -13 -5 -13 -6 0
-13 6 -16 13 -5 9 -7 9 -12 -2 -5 -11 -8 -11 -16 0 -7 10 -8 4 -4 -19 5 -29 4
-31 -9 -18 -8 8 -15 21 -16 28 0 7 -7 -9 -14 -36 -14 -48 -43 -89 -80 -108
-26 -15 -186 -19 -202 -6 -14 11 -17 50 -6 62 4 4 8 19 9 34 1 15 3 32 4 37 4
17 -12 55 -22 55 -5 0 -7 -3 -4 -8 2 -4 -2 -16 -10 -27 -13 -17 -16 -18 -24
-5 -5 8 -10 21 -10 28 0 7 -4 11 -9 7 -5 -3 -12 5 -14 17 -4 19 -5 18 -8 -7z
m8 -47 c-3 -8 -6 -5 -6 6 -1 11 2 17 5 13 3 -3 4 -12 1 -19z"/>
<path d="M3140 2291 c0 -5 5 -13 10 -16 6 -3 10 -2 10 4 0 5 -4 13 -10 16 -5
3 -10 2 -10 -4z"/>
<path d="M4675 2290 c-8 -13 15 -13 35 0 12 8 11 10 -7 10 -12 0 -25 -4 -28
-10z"/>
<path d="M8631 2283 c-18 -20 -6 -29 14 -10 8 9 12 18 8 20 -5 3 -14 -2 -22
-10z"/>
<path d="M9048 2282 c-4 -15 -1 -18 18 -14 20 4 21 6 9 18 -18 18 -22 18 -27
-4z"/>
<path d="M6290 2280 c0 -5 -8 -10 -17 -10 -16 -1 -16 -2 1 -15 25 -19 15 -30
-13 -15 -12 6 -21 7 -21 3 0 -5 -18 -7 -40 -5 -28 3 -41 10 -45 23 -11 33 -24
11 -14 -23 5 -18 5 -36 0 -41 -9 -9 -26 38 -22 61 1 6 -3 12 -9 12 -5 0 -10
-18 -10 -39 0 -22 -4 -41 -10 -43 -10 -3 -100 -455 -92 -463 3 -3 29 -5 58 -5
41 0 56 4 63 18 5 9 24 115 42 235 22 144 37 217 45 217 14 0 48 -54 58 -94
13 -52 89 -237 96 -234 9 4 80 92 139 173 24 33 49 65 55 70 6 6 22 27 36 47
14 21 30 38 36 38 15 0 25 -50 14 -71 -5 -8 -18 -69 -30 -135 -12 -65 -28
-149 -36 -186 -8 -37 -14 -70 -14 -73 0 -3 28 -5 62 -3 l62 3 8 35 c18 86 68
432 68 474 0 74 -20 60 -33 -24 -4 -24 -4 -24 -6 3 -1 25 -4 27 -41 27 -22 0
-40 -4 -40 -9 0 -4 -22 -8 -50 -8 -47 0 -66 10 -37 20 6 2 9 8 5 12 -4 5 -16
-3 -27 -16 -10 -13 -33 -40 -50 -59 -18 -19 -38 -47 -46 -61 -21 -38 -65 -50
-65 -17 0 9 -13 42 -44 108 -6 14 -17 29 -24 33 -7 5 -10 17 -7 28 4 10 4 19
1 19 -3 0 -6 -4 -6 -10z m20 -84 c0 -11 -19 -15 -25 -6 -3 5 1 10 9 10 9 0 16
-2 16 -4z"/>
<path d="M8222 2268 c-6 -13 -13 -36 -15 -53 -2 -16 -16 -91 -31 -165 -57
-284 -63 -320 -58 -325 7 -6 122 -7 122 0 0 2 14 87 31 187 34 199 42 329 22
349 -11 11 -13 10 -13 -3 0 -23 -41 -51 -55 -37 -7 7 -7 12 1 17 8 6 18 52 10
52 -1 0 -8 -10 -14 -22z"/>
<path d="M3357 2243 c2 -19 -1 -33 -7 -33 -5 0 -10 8 -11 18 -1 11 -4 8 -8 -8
-4 -14 -3 -27 1 -29 5 -1 3 -8 -5 -15 -10 -7 -25 -69 -41 -166 -15 -85 -33
-183 -40 -218 -7 -34 -10 -64 -8 -67 7 -7 122 -6 122 0 0 3 11 72 25 153 31
185 47 300 46 330 -1 29 -31 76 -31 49 0 -9 -5 -17 -11 -17 -5 0 -7 -6 -3 -12
6 -10 3 -9 -8 0 -9 8 -19 21 -21 30 -2 9 -2 2 0 -15z"/>
<path d="M3756 2243 c1 -17 -2 -33 -7 -35 -9 -3 -32 -100 -43 -183 -3 -16 -13
-75 -24 -130 -11 -55 -23 -117 -27 -138 l-6 -38 62 3 c60 3 63 4 71 33 7 29
52 308 63 393 3 24 8 54 11 67 8 34 -2 47 -26 33 -10 -7 -16 -16 -13 -21 3 -5
0 -7 -8 -3 -8 3 -22 9 -31 12 -9 3 -19 13 -21 23 -3 9 -3 2 -1 -16z"/>
<path d="M5490 2276 c0 -2 7 -9 15 -16 13 -11 14 -10 9 4 -5 14 -24 23 -24 12z"/>
<path d="M6598 2273 c7 -3 16 -2 19 1 4 3 -2 6 -13 5 -11 0 -14 -3 -6 -6z"/>
<path d="M7337 2248 c-8 -54 -45 -240 -57 -287 -23 -93 -73 -131 -170 -131
-55 0 -65 3 -91 29 -24 24 -29 38 -29 78 0 26 4 64 9 83 6 19 13 62 16 94 3
32 6 62 7 65 0 3 -1 20 -2 36 l-2 30 -13 -30 -13 -30 -4 30 -3 30 -17 -30 -17
-30 3 31 c2 17 6 36 10 43 4 6 2 11 -3 11 -6 0 -11 -5 -11 -11 0 -5 -4 -7 -10
-4 -5 3 -10 3 -11 -2 0 -4 -2 -15 -5 -23 -2 -8 -10 -51 -19 -95 -8 -44 -22
-110 -31 -148 -20 -84 -13 -142 25 -194 66 -91 221 -116 348 -56 109 51 145
126 177 368 2 17 9 54 15 84 6 30 9 57 6 59 -3 3 -5 -2 -5 -11 0 -27 -29 -20
-36 8 -8 34 -18 31 -33 -10 -17 -47 -30 -44 -24 5 7 48 -3 54 -10 8z"/>
<path d="M7600 2261 c-5 -11 -10 -40 -10 -64 0 -76 69 -136 209 -182 88 -29
121 -79 90 -137 -23 -42 -127 -62 -200 -36 -32 11 -61 35 -79 68 -7 12 -16 11
-59 -10 -54 -25 -59 -35 -37 -78 40 -76 119 -114 241 -114 99 -1 168 26 219
84 64 73 70 197 12 255 -22 22 -91 56 -187 93 -76 29 -92 44 -93 85 -1 32 -26
62 -26 30 0 -8 -7 -15 -15 -15 -8 0 -15 -6 -15 -12 -1 -7 -9 -2 -20 11 -11 12
-17 27 -14 32 3 5 3 9 0 9 -3 0 -10 -9 -16 -19z"/>
<path d="M8523 2274 c9 -3 15 -10 12 -15 -4 -5 -1 -9 5 -9 19 0 5 25 -16 27
-16 2 -16 1 -1 -3z"/>
<path d="M5530 2259 c0 -5 5 -7 10 -4 6 3 10 8 10 11 0 2 -4 4 -10 4 -5 0 -10
-5 -10 -11z"/>
<path d="M8578 2250 c-15 -11 -36 -20 -47 -20 -23 0 -29 -16 -8 -23 6 -2 9 -8
5 -12 -9 -9 -38 19 -38 37 0 32 -43 -62 -61 -134 -17 -69 -18 -88 -8 -136 15
-76 50 -142 95 -182 129 -113 354 -96 491 37 23 23 43 44 43 47 0 2 -22 18
-48 34 l-48 29 -42 -37 c-100 -89 -273 -79 -339 21 -26 40 -28 50 -27 137 0
51 5 97 10 100 5 4 17 22 26 40 16 30 16 32 0 32 -14 0 -15 2 -2 9 8 6 17 8
21 5 12 -7 19 10 10 24 -6 10 -14 8 -33 -8z m-111 -102 c-3 -8 -6 -5 -6 6 -1
11 2 17 5 13 3 -3 4 -12 1 -19z"/>
<path d="M8992 2251 c13 -22 28 -28 28 -11 0 5 -9 14 -20 20 -19 10 -20 10 -8
-9z"/>
<path d="M8500 2250 c0 -5 5 -10 10 -10 6 0 10 5 10 10 0 6 -4 10 -10 10 -5 0
-10 -4 -10 -10z"/>
</g>
</svg>
